<?xml version="1.0" standalone="no"?>
<!DOCTYPE svg PUBLIC "-//W3C//DTD SVG 20010904//EN"
 "http://www.w3.org/TR/2001/REC-SVG-20010904/DTD/svg10.dtd">
<svg version="1.0" xmlns="http://www.w3.org/2000/svg"
 width="3098.000000pt" height="3098.000000pt" viewBox="0 0 3098.000000 3098.000000"
 preserveAspectRatio="xMidYMid meet">
<metadata>
Created by potrace 1.14, written by Peter Selinger 2001-2017
</metadata>
<g transform="translate(0.000000,3098.000000) scale(0.100000,-0.100000)"
fill="#000000" stroke="none">
<path d="M4826 29257 c-12 -9 -18 -27 -18 -57 -1 -50 11 -402 16 -467 l3 -41
-101 -69 c-56 -37 -105 -72 -111 -76 -5 -5 -55 -39 -110 -77 -55 -38 -104 -72
-110 -77 -5 -5 -37 -27 -70 -49 -33 -23 -166 -114 -295 -204 -129 -90 -268
-187 -309 -214 -40 -28 -83 -58 -94 -66 -57 -40 -561 -389 -622 -431 -68 -47
-73 -48 -160 -54 -49 -3 -121 -7 -160 -10 -38 -3 -119 -7 -180 -10 -60 -3
-139 -8 -175 -10 -36 -3 -112 -7 -170 -10 -58 -4 -133 -8 -165 -10 -33 -2
-112 -7 -175 -10 -63 -3 -140 -8 -170 -10 -30 -2 -109 -7 -175 -10 -206 -11
-243 -18 -246 -48 -5 -41 -19 -634 -20 -807 -1 -138 1 -153 46 -345 15 -60 28
-121 31 -135 3 -14 37 -153 76 -310 38 -157 71 -292 73 -300 2 -8 40 -159 85
-335 45 -176 84 -331 86 -344 3 -14 7 -28 9 -31 5 -7 18 -423 19 -570 l0 -85
-70 -105 c-38 -58 -134 -204 -212 -325 -141 -220 -141 -220 -187 -370 -96
-312 -117 -381 -128 -415 -6 -19 -12 -37 -12 -40 -1 -3 -8 -30 -17 -60 -9 -30
-19 -98 -22 -150 -6 -89 -8 -140 -21 -415 -3 -60 -8 -150 -10 -200 -3 -49 -7
-139 -10 -200 -3 -60 -7 -155 -10 -210 -3 -55 -7 -140 -9 -190 -2 -49 -8 -153
-12 -230 -11 -216 -12 -237 -13 -284 -1 -37 -4 -43 -20 -38 -11 2 -25 -3 -35
-14 -14 -17 -13 -20 19 -44 22 -17 32 -33 30 -45 -2 -11 -7 -218 -10 -462 -7
-427 -12 -749 -14 -814 -1 -26 -14 -42 -83 -100 -45 -38 -90 -76 -98 -84 -9
-8 -43 -37 -76 -65 -110 -93 -133 -120 -182 -215 -27 -52 -81 -157 -120 -232
-40 -75 -71 -147 -71 -160 1 -13 -2 -90 -5 -173 -11 -239 -14 -328 -21 -530
-4 -104 -8 -221 -10 -259 l-2 -69 136 -151 c201 -223 205 -228 221 -245 9 -9
52 -56 95 -105 44 -49 89 -99 100 -111 22 -23 154 -169 182 -202 10 -11 56
-62 103 -113 46 -51 89 -99 95 -106 5 -8 93 -48 195 -89 230 -94 267 -111 277
-129 4 -8 24 -32 43 -53 19 -21 78 -87 130 -148 52 -60 100 -114 107 -120 6
-5 43 -48 83 -95 40 -47 77 -90 83 -95 7 -6 37 -39 67 -75 30 -36 64 -74 75
-86 11 -11 39 -43 62 -70 23 -27 53 -62 68 -79 79 -90 92 -112 114 -195 30
-117 39 -137 64 -144 12 -3 79 -6 148 -6 115 0 129 -2 155 -22 16 -12 31 -25
34 -28 3 -3 53 -45 113 -94 97 -80 133 -117 123 -127 -5 -4 -20 -499 -18 -587
0 -49 13 -82 33 -82 7 0 150 -65 201 -91 9 -4 81 -37 160 -73 79 -35 179 -81
223 -101 136 -63 188 -87 250 -115 50 -23 92 -60 264 -233 113 -113 206 -214
208 -224 1 -10 5 -49 8 -87 3 -38 7 -92 10 -120 5 -55 12 -122 20 -213 3 -32
8 -82 11 -111 l5 -52 -69 -68 c-85 -84 -95 -100 -79 -132 7 -12 75 -65 152
-117 422 -286 406 -273 483 -380 57 -79 196 -267 335 -454 106 -144 127 -174
128 -183 1 -16 8 -76 14 -111 2 -16 7 -57 11 -90 8 -74 14 -86 89 -171 106
-121 112 -127 143 -119 15 3 31 11 37 16 6 6 10 141 11 357 l1 347 38 115 c21
63 42 117 46 120 6 4 249 5 271 1 4 0 7 -101 8 -223 1 -217 7 -648 13 -974 2
-88 6 -165 10 -170 3 -6 35 -25 69 -41 213 -104 421 -203 423 -203 2 0 90 -42
197 -93 106 -51 240 -115 297 -143 57 -27 154 -74 215 -104 l110 -55 1 -160 0
-160 141 -175 c215 -269 295 -370 342 -432 62 -82 80 -94 138 -91 27 1 132 5
233 9 l184 6 60 -63 c49 -53 196 -206 482 -504 64 -67 427 -444 491 -511 33
-34 138 -144 234 -244 96 -100 195 -204 220 -230 45 -48 303 -316 447 -466 43
-45 166 -173 273 -285 107 -112 241 -251 296 -309 56 -58 137 -142 180 -187
87 -90 87 -90 254 -117 52 -9 106 -18 120 -21 24 -5 210 -39 275 -50 17 -3 93
-17 170 -30 77 -14 156 -28 175 -32 19 -4 42 -8 50 -9 8 -1 53 -9 100 -18 47
-8 101 -18 120 -21 19 -3 46 -8 60 -10 56 -11 79 -16 165 -30 50 -9 149 -27
220 -40 72 -13 146 -26 165 -29 19 -3 71 -12 115 -20 44 -9 96 -18 115 -21 19
-3 46 -7 60 -10 30 -6 72 -9 425 -30 50 -3 117 -8 150 -10 345 -24 500 -24
655 0 14 2 59 7 100 10 41 4 86 8 100 10 14 2 59 6 100 10 41 3 86 8 100 10
14 2 54 7 89 10 40 4 109 25 185 55 66 26 162 64 211 83 50 19 189 74 310 122
121 48 279 109 350 137 72 28 225 88 341 134 116 46 214 84 217 84 4 0 26 9
50 19 23 11 103 43 177 72 74 28 149 57 165 64 17 7 113 45 215 85 239 93 407
159 445 175 17 7 52 21 79 31 l49 18 64 -34 63 -34 1 -70 c1 -68 4 -168 13
-426 4 -131 20 -103 -136 -244 -48 -43 -90 -87 -93 -97 -8 -24 6 -49 74 -134
74 -92 69 -85 160 -201 44 -56 85 -104 93 -106 13 -5 20 -5 109 6 46 5 46 5
80 -42 18 -26 36 -49 39 -52 3 -3 36 -46 73 -96 37 -51 74 -97 82 -104 9 -7
71 -13 167 -16 84 -3 187 -7 228 -9 41 -1 98 -3 125 -4 l51 -1 49 -72 c62 -89
99 -128 120 -128 9 0 45 27 79 60 50 48 71 61 102 65 37 4 102 10 224 21 30 3
75 7 100 9 25 2 79 8 120 11 116 12 131 9 190 -27 30 -19 57 -37 58 -41 2 -5
8 -8 12 -8 13 0 183 -110 197 -127 6 -8 15 -51 19 -96 4 -45 8 -84 9 -87 1 -3
5 -29 9 -59 5 -30 16 -67 25 -83 24 -42 380 -606 428 -679 27 -41 29 -50 38
-169 5 -66 11 -93 30 -120 32 -47 61 -88 195 -278 63 -90 123 -175 133 -190
17 -27 17 -53 2 -162 -3 -19 -7 -57 -10 -85 -2 -27 -7 -60 -9 -73 -5 -22 9
-42 84 -122 8 -9 42 -46 75 -81 140 -152 292 -316 317 -341 38 -40 67 -36 121
16 58 55 215 143 233 130 7 -5 70 -51 139 -101 130 -96 159 -107 189 -74 16
17 17 42 11 287 -4 148 -8 339 -8 424 l-2 155 60 1 c33 1 139 5 235 8 l175 7
65 -197 65 -197 203 -98 202 -98 -5 -33 c-2 -18 -7 -79 -10 -135 -6 -103 3
-143 31 -143 22 0 53 -35 58 -65 19 -122 69 -342 80 -354 18 -17 61 -17 78 0
7 8 44 50 83 94 38 44 74 85 80 91 103 117 115 136 107 166 -2 9 -54 58 -115
109 -63 52 -112 99 -111 108 3 48 16 158 19 171 2 8 6 40 9 70 3 30 8 64 10
75 21 107 18 127 -32 218 l-49 88 34 102 c18 56 41 128 50 160 18 66 8 57 253
230 99 70 176 131 192 154 15 21 36 49 47 63 11 14 84 108 162 210 77 102 162
204 188 228 107 100 142 127 169 128 15 1 64 5 110 9 l84 7 53 -59 c51 -56 56
-59 97 -58 24 1 133 6 243 10 240 9 241 9 260 25 9 7 30 42 47 77 l30 63 95 0
c88 0 102 -3 189 -39 98 -41 96 -41 249 -27 22 3 61 5 86 5 82 2 94 21 104
181 3 47 7 101 10 120 2 19 7 71 10 115 3 44 7 96 10 115 2 19 7 73 10 120 6
81 9 118 20 228 2 26 7 83 10 127 4 44 8 91 10 105 5 28 11 91 20 190 7 78 13
137 20 205 4 38 17 66 54 120 27 38 59 87 72 107 25 40 52 51 144 63 28 3 60
8 72 11 17 5 48 -19 155 -120 131 -123 160 -141 194 -118 12 8 252 350 282
402 12 19 20 47 18 63 -4 32 -2 33 32 8 43 -29 74 -35 268 -46 87 -5 102 -4
115 11 15 18 17 87 6 209 -4 39 -9 104 -12 145 -3 41 -7 102 -10 135 l-4 61
67 61 c37 34 106 99 154 145 l87 83 71 265 c100 369 120 443 124 460 5 21 16
127 30 280 11 118 18 197 22 235 2 22 6 67 9 100 3 33 7 80 10 105 3 25 7 74
10 110 19 224 21 238 53 275 15 17 45 53 66 79 83 100 100 115 141 121 63 9
158 26 177 31 9 3 47 40 83 82 211 242 193 224 268 267 34 20 69 40 77 45 8 5
58 35 110 66 52 31 108 66 123 77 l28 19 -6 144 c-5 127 -4 144 9 144 9 0 16
5 16 11 0 5 5 7 10 4 11 -7 14 28 4 38 -4 4 -7 26 -8 49 l-1 43 75 6 c41 4
113 10 160 14 47 4 99 8 115 10 17 3 64 7 105 10 96 8 121 12 131 22 7 8 74
115 226 363 35 58 68 112 74 120 5 8 58 96 119 195 61 99 114 187 119 195 60
96 157 259 163 271 6 15 14 103 23 269 2 39 -1 70 -8 78 -6 8 -84 49 -173 92
l-161 78 -8 48 c-5 27 -9 54 -11 59 -1 6 -14 64 -27 130 l-25 120 -49 43 c-26
23 -80 68 -120 100 -53 43 -81 74 -111 127 -26 47 -36 72 -28 76 11 7 133 39
164 43 9 2 25 15 36 29 l19 26 -35 68 c-108 212 -193 370 -206 386 -8 9 -25
17 -37 17 -22 0 -65 -38 -65 -57 0 -23 -43 -47 -88 -50 -26 -2 -55 -5 -65 -7
-12 -3 -25 8 -42 35 -14 21 -25 43 -25 48 0 16 -40 33 -64 28 -11 -3 -41 -11
-65 -17 l-45 -11 -62 62 -63 62 32 17 c18 10 33 25 35 34 2 9 -16 82 -40 162
l-43 146 -150 72 c-82 40 -193 93 -245 117 -52 24 -137 64 -188 89 l-94 45 21
27 c21 26 41 96 76 268 27 134 26 132 85 161 l53 26 64 -37 c69 -41 95 -42
117 -6 8 11 34 89 60 172 31 102 69 198 116 291 39 77 70 150 70 161 0 42 -37
53 -171 51 -137 -2 -128 2 -208 -97 l-34 -42 -242 0 c-212 0 -244 2 -249 16
-9 23 -8 24 17 15 30 -11 66 3 76 31 9 24 9 23 -94 313 -31 88 -73 206 -92
263 l-35 102 59 63 c214 226 190 188 286 432 47 121 95 243 105 270 19 49 23
52 218 177 109 71 208 133 219 138 11 6 47 28 80 50 33 21 88 55 121 76 41 25
77 57 107 98 146 195 195 268 192 286 -2 10 -27 54 -56 97 -29 43 -54 90 -55
106 -1 15 0 27 2 27 3 0 46 -16 97 -36 125 -50 161 -45 173 22 4 24 14 74 19
94 1 3 5 30 9 61 l8 56 -91 127 -91 128 27 36 c31 42 96 125 103 132 20 20 50
72 50 88 0 37 -25 53 -115 73 -50 11 -103 23 -119 26 -124 22 -161 39 -326
153 -91 62 -181 124 -200 137 -19 12 -60 40 -90 60 -255 175 -346 235 -364
239 -12 2 -41 6 -66 9 -25 3 -56 7 -70 10 -14 2 -43 7 -65 10 -22 3 -51 7 -65
10 -14 2 -61 9 -105 15 -44 6 -91 13 -105 15 -14 3 -56 9 -95 14 -38 6 -87 13
-107 16 -21 3 -55 7 -75 10 -21 3 -49 7 -63 10 -14 2 -61 9 -105 15 -101 14
-134 19 -165 25 -14 2 -45 7 -70 10 -25 3 -54 7 -65 9 -19 4 -81 13 -150 22
-45 6 -177 25 -205 30 -14 2 -45 6 -70 9 -25 3 -56 8 -70 10 -14 3 -43 7 -65
11 -22 3 -53 8 -70 10 -25 4 -240 79 -590 204 -44 16 -183 65 -310 110 -126
45 -318 113 -425 152 -107 38 -199 71 -205 72 -5 2 -17 6 -25 9 -8 3 -44 15
-80 27 -36 12 -74 26 -85 31 -11 4 -162 58 -335 119 -466 165 -481 170 -535
190 -27 10 -126 46 -220 79 -181 63 -691 244 -968 343 -201 71 -201 71 -226
50 -16 -13 -184 -448 -250 -647 -3 -11 -20 -42 -36 -68 -63 -102 -289 -466
-339 -547 -29 -47 -92 -148 -139 -225 -48 -77 -91 -145 -97 -152 -5 -7 -10
-15 -10 -18 0 -16 -131 -205 -139 -201 -14 9 -34 -22 -28 -44 3 -11 -4 -34
-16 -52 -12 -18 -29 -46 -37 -61 -8 -16 -53 -59 -100 -95 -47 -37 -92 -72
-100 -79 -8 -7 -89 -70 -179 -141 l-164 -128 -91 28 c-50 16 -97 32 -104 36
-13 7 -41 58 -183 332 l-59 115 -68 34 c-187 94 -166 76 -238 196 -36 61 -99
164 -139 230 -41 66 -130 211 -197 323 -68 112 -132 214 -143 227 -17 20 -50
30 -210 65 -104 22 -201 44 -215 47 -14 4 -28 7 -32 7 -7 1 -105 121 -182 224
-33 42 -49 54 -90 67 -28 8 -184 56 -346 108 l-295 93 -102 104 c-56 58 -129
134 -163 170 -169 177 -293 300 -304 301 -6 0 -20 2 -31 4 -11 3 -45 7 -75 11
-30 3 -62 7 -70 9 -8 1 -40 6 -70 9 -94 12 -125 16 -147 20 -12 3 -50 7 -85
11 -35 3 -70 8 -78 10 -8 2 -42 7 -75 11 -103 11 -108 12 -114 22 -5 8 -345
363 -439 459 -13 12 -28 23 -35 24 -7 0 -21 3 -32 5 -29 7 -52 11 -130 23 -38
6 -79 13 -90 15 -11 3 -32 5 -46 5 -31 1 -55 22 -185 166 -54 60 -110 122
-124 136 -14 14 -43 46 -65 70 -69 77 -239 262 -270 295 -27 29 -58 39 -325
114 -162 45 -306 85 -320 90 -14 4 -50 15 -80 23 -88 24 -170 48 -240 68 -89
26 -553 157 -615 174 -69 19 -460 129 -573 162 l-93 27 -154 155 c-85 86 -204
208 -266 271 -61 63 -246 252 -410 420 -164 168 -362 370 -440 450 -554 567
-895 916 -1094 1118 -126 129 -264 270 -305 312 -41 42 -241 247 -445 455
-203 208 -380 388 -392 400 -13 14 -40 25 -68 29 -26 4 -57 10 -68 12 -38 8
-131 24 -177 30 -25 3 -52 7 -60 9 -12 4 -515 90 -645 111 -16 2 -52 9 -80 14
-27 6 -66 12 -85 15 -19 3 -44 7 -55 9 -11 3 -29 5 -40 5 -17 1 -112 74 -220
169 -17 15 -86 74 -155 132 -231 192 -375 314 -380 320 -3 3 -43 37 -90 75
-47 39 -96 80 -110 92 -24 20 -423 357 -465 392 -11 9 -68 57 -126 106 -58 50
-128 108 -154 130 -27 22 -85 71 -130 109 -124 105 -125 106 -220 186 -50 41
-92 77 -95 80 -3 3 -32 27 -65 55 -33 27 -69 57 -80 67 -23 20 -90 76 -159
133 -27 22 -58 49 -70 60 -24 21 -421 355 -465 392 -26 21 -79 39 -396 138
-82 26 -197 62 -255 80 -452 142 -415 133 -444 112z"/>
</g>
</svg>
